<?xml version="1.0" encoding="utf-8"?>
<!-- Generator: Adobe Illustrator 27.0.0, SVG Export Plug-In . SVG Version: 6.00 Build 0)  -->
<svg version="1.1" id="Layer_1" xmlns="http://www.w3.org/2000/svg" xmlns:xlink="http://www.w3.org/1999/xlink" x="0px" y="0px"
	 viewBox="0 0 1920 1920" style="enable-background:new 0 0 1920 1920;" xml:space="preserve">
<style type="text/css">
	.st0{fill:#9F5F91;}
	.st1{fill:#FFFFFF;}
	.st2{fill:#952C30;}
	.st3{fill:#F2F2F2;}
</style>
<g>
	<polygon class="st0" points="960,1646.5 1581.4,273.5 338.6,273.5 	"/>
	<g>
		<circle class="st1" cx="959.1" cy="693.1" r="303.1"/>
		<circle class="st2" cx="959.1" cy="693.1" r="257.6"/>
		<rect x="953" y="670.3" class="st1" width="14" height="331.7"/>
		<rect x="945.2" y="981" class="st1" width="29.2" height="202.1"/>
		<path class="st1" d="M953.7,681.1c-7.6,3.9-13.4,10.8-17.3,18.4c-4,7.6-6.3,15.9-8.6,24.2c-3.4,12.3-6.9,24.7-10.3,37
			c-1.7,6.1-3.8,12.8-9,16.4c-5.8,4-13.6,3-20.4,1c-14.7-4.4-28.3-12.7-38.8-23.8c-19.4-20.6-31.9-46.3-43.2-72.3
			c-19.5-45-8.8-100.2,16.9-141.9c13.4-21.8,36.5-37.7,58.5-50.8c21.4-12.8,46.9-18.6,71.8-20.9c30.5-2.8,61,4.5,88.2,18.4
			c27.3,13.9,50.7,35.2,67.1,61c23.8,37.4,28.5,88.9,15.2,131.3c-13.2,42.3-44.9,78.5-85.1,97.3c-6.2,2.9-14.1,4.3-20.1,0.8
			c-5.9-3.5-9.9-9.6-12.2-16.1s-3.4-13.3-4.9-20c-3-13.6-8.1-26.7-15-38.7c-3.4-6.1-7.9-14.9-13.5-19
			C967.5,679,959.9,678,953.7,681.1z"/>
		<rect x="902.6" y="1075.6" class="st1" width="114.5" height="30.4"/>
		
			<rect x="1254.8" y="368.8" transform="matrix(0.6451 0.7641 -0.7641 0.6451 800.2751 -804.263)" class="st1" width="22.2" height="181"/>
		
			<rect x="658.4" y="368.8" transform="matrix(0.6521 -0.7581 0.7581 0.6521 -120.6786 669.8081)" class="st1" width="22.2" height="195.1"/>
		<polygon class="st3" points="551.5,364.8 558.1,469 655.5,355.7 		"/>
		<polygon class="st3" points="1379,365.1 1275,355.1 1371.4,469.3 		"/>
		
			<rect x="655.3" y="403.2" transform="matrix(0.7581 0.6521 -0.6521 0.7581 464.9947 -322.5481)" class="st3" width="24.1" height="124.7"/>
	</g>
</g>
</svg>
