<svg version="1.2" xmlns="http://www.w3.org/2000/svg" viewBox="0 0 1920 1920" width="1920" height="1920">
	<style>
		.s0 { fill: #9f5f91 } 
		.s1 { fill: #ffffff } 
		.s2 { fill: #952c30 } 
		.s3 { fill: #f2f2f2 } 
	</style>
	<g>
		<path fill-rule="evenodd" class="s0" d="m959.96 1920l868.97-1920h-1737.93z"/>
		<g>
			<path fill-rule="evenodd" class="s1" d="m958.71 1010.62c-234.4 0-423.86-189.46-423.86-423.85 0-234.39 189.46-423.86 423.86-423.86 234.39 0 423.85 189.47 423.85 423.86 0 234.39-189.46 423.85-423.85 423.85z"/>
			<path fill-rule="evenodd" class="s2" d="m958.71 946.99c-199.21 0-360.23-161.02-360.23-360.22 0-199.21 161.02-360.23 360.23-360.23 199.2 0 360.22 161.02 360.22 360.23 0 199.2-161.02 360.22-360.22 360.22z"/>
			<path fill-rule="evenodd" class="s1" d="m969.75 554.88v463.85h-19.57v-463.85z"/>
			<path fill-rule="evenodd" class="s1" d="m980.1 989.37v282.61h-40.83v-282.61z"/>
			<path class="s1" d="m951.15 569.99c-10.62 5.45-18.73 15.1-24.19 25.73-5.59 10.63-8.81 22.23-12.02 33.84-4.76 17.2-9.65 34.54-14.41 51.74-2.37 8.53-5.31 17.9-12.58 22.93-8.11 5.6-19.02 4.2-28.53 1.4-20.56-6.15-39.58-17.76-54.26-33.28-27.13-28.81-44.61-64.75-60.41-101.1-27.27-62.93-12.3-140.12 23.63-198.44 18.74-30.48 51.05-52.72 81.81-71.04 29.93-17.9 65.58-26.01 100.41-29.22 42.65-3.92 85.3 6.29 123.33 25.73 38.18 19.44 70.9 49.22 93.84 85.3 33.28 52.3 39.85 124.32 21.25 183.61-18.46 59.15-62.79 109.77-119 136.06-8.67 4.06-19.72 6.02-28.11 1.12-8.25-4.89-13.84-13.42-17.06-22.51-3.22-9.09-4.75-18.6-6.85-27.97-4.2-19.02-11.33-37.34-20.98-54.12-4.75-8.53-11.05-20.83-18.88-26.57-7.69-6.15-18.32-7.55-26.99-3.21z"/>
			<path fill-rule="evenodd" class="s1" d="m1039.81 1121.65v42.52h-160.11v-42.52z"/>
			<path fill-rule="evenodd" class="s1" d="m1474.5 166.33l20.03 23.72-193.4 163.28-20.03-23.72z"/>
			<path fill-rule="evenodd" class="s1" d="m440.11 192.52l20.25-23.54 206.83 177.91-20.25 23.54z"/>
			<path fill-rule="evenodd" class="s3" d="m388.72 127.67l9.23 145.72 136.2-158.44z"/>
			<path fill-rule="evenodd" class="s3" d="m1545.89 128.09l-145.43-13.98 134.81 159.7z"/>
			<path fill-rule="evenodd" class="s3" d="m594.77 191.5l25.55 21.97-113.71 132.2-25.55-21.98z"/>
		</g>
	</g>
</svg>